<?xml version="1.0" encoding="UTF-8"?>
<svg id="Layer_1" data-name="Layer 1" xmlns="http://www.w3.org/2000/svg" viewBox="0 0 738.4 772.74">
  <defs>
    <style>
      .cls-1 {
        fill: none;
        stroke: #000;
        stroke-linecap: round;
        stroke-miterlimit: 10;
        stroke-width: 25px;
      }
    </style>
  </defs>
  <g>
    <path className="cls-1" d="M77.09,532.2v-249.85c0-17.61,5.76-34.24,15.88-47.71,0-.01,.01-.01,.01-.02,8.56-11.55,20.29-20.86,34.26-26.38l204.97-82c23.77-9.5,50.22-9.5,73.93,0l192.62,77.03c17.44,6.95,32.09,18.5,42.76,32.9,12.61,16.82,19.81,37.56,19.81,59.53v215.77c0,40.72-24.77,77.28-62.57,92.43l-9.81,3.91-42.84,17.14"/>
    <path className="cls-1" d="M292.97,665.22l-155.99-62.38-19.62-7.88c-24.33-9.68-40.29-33.27-40.29-59.47"/>
    <line className="cls-1" x1="180.53" y1="269.7" x2="92.91" y2="234.62"/>
    <polyline className="cls-1" points="272.13 306.28 369.2 345.17 641.52 236.17 641.58 236.17"/>
    <polyline className="cls-1" points="369.2 345.17 369.2 679.93 369.2 695.7"/>
  </g>
  <path className="cls-1" d="M409.6,224.12l-56.94-23.03c-2.85-1.15-6.03-1.16-8.88-.02l-156.98,62.8c-4.52,1.81-7.48,6.18-7.48,11.04v198.18l87.69,35.48v-197.31c0-4.86,2.96-9.24,7.48-11.04l135.08-54.04c9.95-3.98,9.97-18.05,.04-22.07Z"/>
  <path className="cls-1" d="M428.32,672.07l-59.11,23.64c-.07,.06-76.23-30.48-76.23-30.48l-155.99-62.39"/>
  <line className="cls-1" x1="588.95" y1="607.81" x2="546.11" y2="624.95"/>
  <line className="cls-1" x1="440.8" y1="570.03" x2="534.02" y2="532.74"/>
  <line className="cls-1" x1="440.8" y1="515.69" x2="534.02" y2="478.4"/>
</svg>