<?xml version="1.0" encoding="UTF-8"?>
<svg id="Layer_1" data-name="Layer 1" xmlns="http://www.w3.org/2000/svg" viewBox="0 0 805.73 807.13">
  <defs>
    <style>
      .cls-1 {
        fill: none;
        stroke: #000;
        stroke-linecap: round;
        stroke-miterlimit: 10;
        stroke-width: 25px;
      }
    </style>
  </defs>
  <path className="cls-1" d="M386.62,699.55H115.46V346.53c0-33.65,27.28-60.93,60.93-60.93h149.31c33.65,0,60.93,27.28,60.93,60.93v243.67"/>
  <path className="cls-1" d="M386.62,221.79v-10.39c0-33.65,27.28-60.93,60.93-60.93h181.8c33.65,0,60.93,27.28,60.93,60.93v488.15h-244.82"/>
  <path className="cls-1" d="M595.38,699.55v-89.66c0-24.76-20.07-44.84-44.84-44.84h-24.2c-24.76,0-44.84,20.07-44.84,44.84v89.66"/>
  <path className="cls-1" d="M312.12,699.55v-89.66c0-24.76-20.07-44.84-44.84-44.84h-24.2c-24.76,0-44.84,20.07-44.84,44.84v89.66"/>
  <g>
    <rect className="cls-1" x="450.37" y="233.88" width="62.63" height="62.63" rx="18.58" ry="18.58"/>
    <rect className="cls-1" x="563.89" y="233.88" width="62.63" height="62.63" rx="18.58" ry="18.58"/>
    <rect className="cls-1" x="450.37" y="340.12" width="62.63" height="62.63" rx="18.58" ry="18.58"/>
    <rect className="cls-1" x="563.89" y="340.12" width="62.63" height="62.63" rx="18.58" ry="18.58"/>
  </g>
  <g>
    <rect className="cls-1" x="167.12" y="339.36" width="62.63" height="62.63" rx="18.58" ry="18.58"/>
    <rect className="cls-1" x="280.63" y="339.36" width="62.63" height="62.63" rx="18.58" ry="18.58"/>
  </g>
</svg>