<svg width="81" height="80" viewBox="0 0 81 80" fill="none" xmlns="http://www.w3.org/2000/svg">
<path fill-rule="evenodd" clip-rule="evenodd" d="M38.1993 22.0121L23.216 28.0021L23.2125 28.0035C22.6158 28.2398 22.109 28.639 21.7359 29.1415L21.7313 29.1477L21.7267 29.1538C21.2901 29.734 21.0398 30.4517 21.0398 31.2182V49.465C21.0398 50.7705 19.9814 51.8288 18.6759 51.8288C17.3704 51.8288 16.3121 50.7705 16.3121 49.465V31.2182C16.3121 29.4124 16.904 27.7027 17.9445 26.3172C18.8223 25.1371 20.0277 24.1806 21.4678 23.6094L21.4717 23.6079L36.4479 17.6207C38.7475 16.7036 41.307 16.7029 43.605 17.6214L57.6816 23.2469L57.6837 23.2478M61.827 26.4307C60.7907 25.0383 59.3713 23.9208 57.6837 23.2478L61.827 26.4307ZM61.827 26.4307C63.0477 28.0599 63.7443 30.068 63.7443 32.1928V47.9511C63.7443 51.8936 61.3435 55.4311 57.6864 56.8955L57.6837 56.8966L56.9636 57.1829L46.4789 61.3751C45.2667 61.8598 43.8911 61.27 43.4064 60.0578C42.9217 58.8455 43.5115 57.4699 44.7237 56.9852L55.2148 52.7905L55.929 52.5066L55.9316 52.5055C57.7973 51.7572 59.0166 49.9556 59.0166 47.9511V32.1928C59.0166 31.1089 58.6625 30.0908 58.042 29.2635L58.0389 29.2594L58.0359 29.2554C57.5103 28.5483 56.7905 27.9811 55.9314 27.6388L41.8505 22.0115C40.6803 21.5438 39.3754 21.5432 38.1993 22.0121" fill="#5E5E5E"/>
<path fill-rule="evenodd" clip-rule="evenodd" d="M18.6747 47.3413C19.9802 47.3413 21.0385 48.3997 21.0385 49.7052C21.0385 50.6515 21.6164 51.5028 22.493 51.8513L22.4966 51.8528L35.3323 56.9851C36.5446 57.4696 37.1346 58.8451 36.6501 60.0574C36.1656 61.2697 34.7901 61.8597 33.5778 61.3752L22.1744 56.8178L20.7424 56.243C18.0652 55.1767 16.3108 52.5835 16.3108 49.7052C16.3108 48.3997 17.3691 47.3413 18.6747 47.3413Z" fill="#5E5E5E"/>
<path fill-rule="evenodd" clip-rule="evenodd" d="M17.6381 26.8533C18.1229 25.6411 19.4986 25.0516 20.7108 25.5364L24.0138 26.8576C25.226 27.3425 25.8156 28.7182 25.3307 29.9303C24.8459 31.1425 23.4702 31.7321 22.258 31.2472L18.955 29.926C17.7428 29.4411 17.1532 28.0654 17.6381 26.8533Z" fill="#5E5E5E"/>
<path fill-rule="evenodd" clip-rule="evenodd" d="M59.4753 25.4799H59.9355C61.241 25.4799 62.2993 26.5383 62.2993 27.8438C62.2993 28.8775 61.6359 29.7561 60.7116 30.0773L40.0272 38.3507L21.5598 30.9684C20.3476 30.4838 19.7577 29.1082 20.2423 27.896C20.7269 26.6837 22.1025 26.0938 23.3147 26.5784L40.0267 33.259L59.4753 25.4799Z" fill="#5E5E5E"/>
<path fill-rule="evenodd" clip-rule="evenodd" d="M40.0269 33.441C41.3324 33.441 42.3908 34.4994 42.3908 35.8049V61.4059C42.3908 62.7115 41.3324 63.7698 40.0269 63.7698C38.7214 63.7698 37.6631 62.7115 37.6631 61.4059V35.8049C37.6631 34.4994 38.7214 33.441 40.0269 33.441Z" fill="#5E5E5E"/>
<path fill-rule="evenodd" clip-rule="evenodd" d="M20.8582 53.7462C21.3427 52.5339 22.7183 51.9439 23.9306 52.4284L40.0269 58.8605L55.2101 52.7914C56.4224 52.3067 57.798 52.8965 58.2827 54.1087C58.7674 55.3209 58.1776 56.6965 56.9654 57.1812L40.0269 63.9514L33.5778 61.3752L22.176 56.8185C20.9638 56.334 20.3737 54.9585 20.8582 53.7462Z" fill="#5E5E5E"/>
<path fill-rule="evenodd" clip-rule="evenodd" d="M54.2684 48.6262C54.7531 49.8384 54.1632 51.214 52.951 51.6987L46.1383 54.4224C44.9261 54.9071 43.5505 54.3173 43.0658 53.105C42.5811 51.8928 43.171 50.5172 44.3832 50.0326L51.1959 47.3088C52.4082 46.8242 53.7838 47.414 54.2684 48.6262Z" fill="#5E5E5E"/>
<path fill-rule="evenodd" clip-rule="evenodd" d="M54.2685 43.1052C54.753 44.3175 54.163 45.693 52.9507 46.1775L46.1379 48.9C44.9256 49.3845 43.5501 48.7944 43.0657 47.5821C42.5812 46.3698 43.1712 44.9943 44.3835 44.5098L51.1963 41.7873C52.4086 41.3029 53.7841 41.8929 54.2685 43.1052Z" fill="#5E5E5E"/>
<path fill-rule="evenodd" clip-rule="evenodd" d="M44.406 4.06949C44.6465 2.78629 45.8816 1.94097 47.1648 2.1814C53.386 3.34706 59.0771 6.00645 63.8517 9.7699C64.877 10.5781 65.053 12.0644 64.2449 13.0897C63.4367 14.115 61.9503 14.291 60.925 13.4829C56.7345 10.1798 51.7451 7.84961 46.2941 6.82826C45.0109 6.58783 44.1656 5.35268 44.406 4.06949Z" fill="#5E5E5E"/>
<path fill-rule="evenodd" clip-rule="evenodd" d="M60.5318 10.1644C61.34 9.13904 62.8263 8.96297 63.8516 9.7711C69.9551 14.5817 74.5705 21.2026 76.8813 28.83C77.2598 30.0794 76.5538 31.3991 75.3044 31.7777C74.0549 32.1562 72.7352 31.4502 72.3567 30.2007C70.3326 23.5199 66.2859 17.7094 60.9251 13.4842C59.8998 12.676 59.7237 11.1897 60.5318 10.1644Z" fill="#5E5E5E"/>
<path fill-rule="evenodd" clip-rule="evenodd" d="M75.984 44.3791C77.2672 44.6199 78.1122 45.8553 77.8714 47.1384C76.7046 53.356 74.0414 59.0432 70.2752 63.814C69.4662 64.8387 67.9798 65.0137 66.9551 64.2047C65.9304 63.3958 65.7555 61.9093 66.5644 60.8846C69.87 56.6972 72.2028 51.7121 73.2247 46.2664C73.4655 44.9833 74.7009 44.1383 75.984 44.3791Z" fill="#5E5E5E"/>
<path fill-rule="evenodd" clip-rule="evenodd" d="M69.8857 60.4939C70.9104 61.3028 71.0854 62.7892 70.2765 63.814C65.462 69.913 58.8363 74.5245 51.204 76.8332C49.9544 77.2112 48.635 76.5046 48.257 75.255C47.879 74.0054 48.5856 72.686 49.8352 72.308C56.5221 70.2852 62.3373 66.2412 66.5656 60.8847C67.3745 59.8599 68.8609 59.685 69.8857 60.4939Z" fill="#5E5E5E"/>
<path fill-rule="evenodd" clip-rule="evenodd" d="M15.8077 66.9115C16.6159 65.8862 18.1022 65.7102 19.1275 66.5184C23.318 69.8214 28.3074 72.1516 33.7585 73.173C35.0416 73.4134 35.887 74.6486 35.6465 75.9318C35.4061 77.215 34.171 78.0603 32.8878 77.8198C26.6666 76.6542 20.9755 73.9948 16.2009 70.2314C15.1756 69.4232 14.9996 67.9369 15.8077 66.9115Z" fill="#5E5E5E"/>
<path fill-rule="evenodd" clip-rule="evenodd" d="M4.7482 48.2248C5.99764 47.8463 7.31738 48.5523 7.69591 49.8018C9.71994 56.4826 13.7667 62.2932 19.1275 66.5184C20.1529 67.3265 20.3289 68.8128 19.5207 69.8381C18.7126 70.8635 17.2262 71.0395 16.2009 70.2314C10.0974 65.4208 5.48206 58.7999 3.17128 51.1725C2.79274 49.9231 3.49876 48.6034 4.7482 48.2248Z" fill="#5E5E5E"/>
<path fill-rule="evenodd" clip-rule="evenodd" d="M13.1075 15.7953C14.1322 16.6042 14.3071 18.0907 13.4982 19.1154C10.1927 23.3025 7.86108 28.2876 6.8391 33.7336C6.59832 35.0167 5.36294 35.8617 4.07981 35.6209C2.79668 35.3801 1.9517 34.1447 2.19249 32.8616C3.3592 26.6443 6.02095 20.9571 9.78742 16.186C10.5964 15.1613 12.0828 14.9864 13.1075 15.7953Z" fill="#5E5E5E"/>
<path fill-rule="evenodd" clip-rule="evenodd" d="M31.8081 4.745C32.1861 5.9946 31.4795 7.31404 30.2299 7.69204C23.543 9.7148 17.7278 13.7588 13.4995 19.1153C12.6906 20.1401 11.2042 20.315 10.1794 19.5061C9.15469 18.6972 8.97972 17.2108 9.78862 16.186C14.6031 10.087 21.2288 5.47554 28.8611 3.16682C30.1107 2.78882 31.4301 3.49539 31.8081 4.745Z" fill="#5E5E5E"/>
<path d="M69.2737 31.7074L73.6461 36.9672C74.7667 38.3147 76.9266 37.9456 77.5352 36.3028L79.9079 29.8907C80.5164 28.2467 79.1153 26.5626 77.3874 26.8579L70.6423 28.0115C68.9144 28.3067 68.1543 30.3611 69.2737 31.7099V31.7074Z" fill="#5E5E5E"/>
<path d="M48.3259 69.2294L43.062 73.5984C41.7135 74.7182 42.0829 76.8764 43.7269 77.4845L50.144 79.8554C51.7893 80.4635 53.4746 79.0635 53.1791 77.3369L52.0246 70.5969C51.7291 68.8703 49.6732 68.1109 48.3234 69.2294H48.3259Z" fill="#5E5E5E"/>
<path d="M10.7789 48.2951L6.40648 43.0353C5.28584 41.6878 3.12595 42.0569 2.51743 43.6997L0.144676 50.1118C-0.463849 51.7558 0.937263 53.4399 2.66518 53.1446L9.4103 51.991C11.1382 51.6958 11.8982 49.6414 10.7789 48.2926V48.2951Z" fill="#5E5E5E"/>
<path d="M31.7392 10.7706L37.0031 6.40157C38.3516 5.28179 37.9822 3.12356 36.3382 2.5155L29.9211 0.144566C28.2759 -0.463494 26.5905 0.936544 26.886 2.66313L28.0405 9.40309C28.336 11.1297 30.3919 11.8891 31.7417 10.7706H31.7392Z" fill="#5E5E5E"/>
</svg>
