<?xml version="1.0" encoding="UTF-8"?>
<svg id="Layer_1" data-name="Layer 1" xmlns="http://www.w3.org/2000/svg" viewBox="0 0 705.32 807.13">
  <defs>
    <style>
      .cls-1 {
        fill: none;
        stroke: #000;
        stroke-linecap: round;
        stroke-miterlimit: 10;
        stroke-width: 25px;
      }
    </style>
  </defs>
  <g>
    <path className="cls-1" d="M200.63,490.16v-145.84c0-10.29,3.37-20,9.28-27.86,5-6.74,11.85-12.17,20-15.4l119.65-47.87c13.88-5.54,29.31-5.54,43.16,0l112.44,44.97c10.18,4.06,18.73,10.8,24.97,19.2,7.36,9.82,11.56,21.92,11.56,34.75v125.95c0,23.77-14.46,45.11-36.52,53.95l-5.73,2.28-83.77,33.52"/>
    <path className="cls-1" d="M326.65,567.81l-91.06-36.42-11.45-4.6c-14.2-5.65-23.52-19.42-23.52-34.71"/>
    <line className="cls-1" x1="236.25" y1="327.01" x2="209.87" y2="316.45"/>
    <polyline className="cls-1" points="230.67 324.78 371.15 380.98 530.11 317.35 530.15 317.35"/>
    <polyline className="cls-1" points="371.15 380.98 371.15 576.4 371.15 585.6"/>
    <path className="cls-1" d="M499.42,534.29l-83.77,33.52-44.5,17.79s-44.5-17.79-44.5-17.79l-91.06-36.42"/>
    <line className="cls-1" x1="412.95" y1="512.24" x2="467.36" y2="490.47"/>
    <line className="cls-1" x1="412.95" y1="468.1" x2="467.36" y2="446.34"/>
    <path className="cls-1" d="M424.68,130.81c46.61,8.74,89.26,28.68,125.06,56.92"/>
    <path className="cls-1" d="M549.74,187.74c45.78,36.11,80.37,85.79,97.68,142.97"/>
    <path className="cls-1" d="M654.84,468.08c-8.74,46.61-28.69,89.26-56.93,125.06"/>
    <path className="cls-1" d="M597.92,593.14c-36.11,45.78-85.79,80.37-142.97,97.68"/>
    <path className="cls-1" d="M317.61,698.22c-46.61-8.74-89.26-28.68-125.06-56.92"/>
    <path className="cls-1" d="M192.55,641.3c-45.78-36.11-80.37-85.79-97.68-142.97"/>
    <path className="cls-1" d="M87.54,360.94c8.74-46.61,28.68-89.26,56.92-125.06"/>
    <path className="cls-1" d="M144.47,235.88c36.11-45.78,85.79-80.37,142.97-97.68"/>
  </g>
  <g>
    <path d="M604.73,348.23l34.92,42.04c8.95,10.77,26.2,7.82,31.06-5.31l18.95-51.25c4.86-13.14-6.33-26.6-20.13-24.24l-53.87,9.22c-13.8,2.36-19.87,18.78-10.93,29.56Z"/>
    <path d="M437.43,648.13l-42.04,34.92c-10.77,8.95-7.82,26.2,5.31,31.06l51.25,18.95c13.14,4.86,26.6-6.33,24.24-20.13l-9.22-53.87c-2.36-13.8-18.78-19.87-29.56-10.93Z"/>
    <path d="M137.56,480.81l-34.92-42.04c-8.95-10.77-26.2-7.82-31.06,5.31l-18.95,51.25c-4.86,13.14,6.33,26.6,20.13,24.24l53.87-9.22c13.8-2.36,19.87-18.78,10.93-29.56Z"/>
    <path d="M304.96,180.89l42.04-34.92c10.77-8.95,7.82-26.2-5.31-31.06l-51.25-18.95c-13.14-4.86-26.6,6.33-24.24,20.13l9.22,53.87c2.36,13.8,18.78,19.87,29.56,10.93Z"/>
  </g>
</svg>