<svg width="84" height="80" viewBox="0 0 84 80" fill="none" xmlns="http://www.w3.org/2000/svg">
<path fill-rule="evenodd" clip-rule="evenodd" d="M10.3382 22.1409C6.57259 22.1409 3.51976 25.1717 3.51976 28.9101V76.5057H39.9366C40.9085 76.5057 41.6964 77.2879 41.6964 78.2528C41.6964 79.2178 40.9085 80 39.9366 80H0V28.9101C0 23.2419 4.62868 18.6466 10.3382 18.6466H31.3596C37.0692 18.6466 41.6978 23.2419 41.6978 28.9101V62.9687C41.6978 63.9336 40.9099 64.7158 39.938 64.7158C38.966 64.7158 38.1781 63.9336 38.1781 62.9687V28.9101C38.1781 25.1717 35.1253 22.1409 31.3596 22.1409H10.3382Z" fill="#03FF3B"/>
<path fill-rule="evenodd" clip-rule="evenodd" d="M48.3333 3.48384C44.5957 3.48384 41.5655 6.50551 41.5655 10.2327V11.6806C41.5655 12.6426 40.7835 13.4225 39.8187 13.4225C38.854 13.4225 38.0719 12.6426 38.0719 11.6806V10.2327C38.0719 4.58144 42.6662 0 48.3333 0H73.7386C79.4057 0 84 4.58144 84 10.2327V80H48.0412C47.0765 80 46.2944 79.2201 46.2944 78.2581C46.2944 77.296 47.0765 76.5162 48.0412 76.5162H80.5064V10.2327C80.5064 6.50551 77.4763 3.48384 73.7386 3.48384H48.3333Z" fill="#03FF3B"/>
<path fill-rule="evenodd" clip-rule="evenodd" d="M51.3669 65.7452C51.3669 61.3254 54.9424 57.7444 59.3511 57.7444H62.7208C67.1314 57.7444 70.705 61.3273 70.705 65.7452V78.2558C70.705 79.2191 69.9258 80 68.9645 80C68.0032 80 67.2239 79.2191 67.2239 78.2558V65.7452C67.2239 63.2534 65.2083 61.2327 62.7208 61.2327H59.3511C56.8645 61.2327 54.848 63.2525 54.848 65.7452V78.2558C54.848 79.2191 54.0687 80 53.1074 80C52.1462 80 51.3669 79.2191 51.3669 78.2558V65.7452Z" fill="#03FF3B"/>
<path fill-rule="evenodd" clip-rule="evenodd" d="M11.482 65.7452C11.482 61.3254 15.0575 57.7444 19.4662 57.7444H22.8359C27.2465 57.7444 30.8201 61.3273 30.8201 65.7452V78.2558C30.8201 79.2191 30.0409 80 29.0796 80C28.1183 80 27.3391 79.2191 27.3391 78.2558V65.7452C27.3391 63.2534 25.3235 61.2327 22.8359 61.2327H19.4662C16.9796 61.2327 14.9631 63.2525 14.9631 65.7452V78.2558C14.9631 79.2191 14.1838 80 13.2226 80C12.2613 80 11.482 79.2191 11.482 78.2558V65.7452Z" fill="#03FF3B"/>
<path fill-rule="evenodd" clip-rule="evenodd" d="M51.4234 15.0323C50.9603 15.0323 50.5848 15.4247 50.5848 15.9087V19.5801C50.5848 20.0642 50.9603 20.4566 51.4234 20.4566H54.9363C55.3995 20.4566 55.7749 20.0642 55.7749 19.5801V15.9087C55.7749 15.4247 55.3995 15.0323 54.9363 15.0323H51.4234ZM47.1367 15.9087C47.1367 13.4344 49.0559 11.4286 51.4234 11.4286H54.9363C57.3038 11.4286 59.223 13.4344 59.223 15.9087V19.5801C59.223 22.0544 57.3038 24.0602 54.9363 24.0602H51.4234C49.0559 24.0602 47.1367 22.0544 47.1367 19.5801V15.9087Z" fill="#03FF3B"/>
<path fill-rule="evenodd" clip-rule="evenodd" d="M67.1356 15.0323C66.6725 15.0323 66.297 15.4247 66.297 15.9087V19.5801C66.297 20.0642 66.6725 20.4566 67.1356 20.4566H70.6486C71.1117 20.4566 71.4871 20.0642 71.4871 19.5801V15.9087C71.4871 15.4247 71.1117 15.0323 70.6486 15.0323H67.1356ZM62.8489 15.9087C62.8489 13.4345 64.7681 11.4286 67.1356 11.4286H70.6486C73.016 11.4286 74.9352 13.4344 74.9352 15.9087V19.5801C74.9352 22.0544 73.016 24.0602 70.6486 24.0602H67.1356C64.7681 24.0602 62.8489 22.0544 62.8489 19.5801V15.9087Z" fill="#03FF3B"/>
<path fill-rule="evenodd" clip-rule="evenodd" d="M51.4234 29.8983C50.9603 29.8983 50.5848 30.272 50.5848 30.733V34.2296C50.5848 34.6905 50.9603 35.0642 51.4234 35.0642H54.9363C55.3995 35.0642 55.7749 34.6906 55.7749 34.2296V30.733C55.7749 30.272 55.3995 29.8983 54.9363 29.8983H51.4234ZM47.1367 30.733C47.1367 28.3765 49.0559 26.4662 51.4234 26.4662H54.9363C57.3038 26.4662 59.223 28.3765 59.223 30.733V34.2296C59.223 36.586 57.3038 38.4963 54.9363 38.4963H51.4234C49.0559 38.4963 47.1367 36.586 47.1367 34.2296V30.733Z" fill="#03FF3B"/>
<path fill-rule="evenodd" clip-rule="evenodd" d="M67.1356 29.8983C66.6725 29.8983 66.297 30.272 66.297 30.733V34.2296C66.297 34.6906 66.6725 35.0642 67.1356 35.0642H70.6486C71.1117 35.0642 71.4871 34.6905 71.4871 34.2296V30.733C71.4871 30.272 71.1117 29.8983 70.6486 29.8983H67.1356ZM62.8489 30.733C62.8489 28.3765 64.7681 26.4662 67.1356 26.4662H70.6486C73.016 26.4662 74.9352 28.3765 74.9352 30.733V34.2296C74.9352 36.586 73.016 38.4963 70.6486 38.4963H67.1356C64.7681 38.4963 62.8489 36.586 62.8489 34.2296V30.733Z" fill="#03FF3B"/>
<path fill-rule="evenodd" clip-rule="evenodd" d="M11.5385 29.8983C11.0754 29.8983 10.6999 30.272 10.6999 30.733V34.2296C10.6999 34.6906 11.0754 35.0642 11.5385 35.0642H15.0514C15.5146 35.0642 15.89 34.6906 15.89 34.2296V30.733C15.89 30.272 15.5146 29.8983 15.0514 29.8983H11.5385ZM7.2518 30.733C7.2518 28.3765 9.17102 26.4662 11.5385 26.4662H15.0514C17.4189 26.4662 19.3381 28.3765 19.3381 30.733V34.2296C19.3381 36.586 17.4189 38.4963 15.0514 38.4963H11.5385C9.17102 38.4963 7.2518 36.586 7.2518 34.2296V30.733Z" fill="#03FF3B"/>
<path fill-rule="evenodd" clip-rule="evenodd" d="M27.4651 29.8983C26.9788 29.8983 26.5845 30.272 26.5845 30.733V34.2296C26.5845 34.6906 26.9788 35.0642 27.4651 35.0642H31.1536C31.6399 35.0642 32.0342 34.6905 32.0342 34.2296V30.733C32.0342 30.272 31.6399 29.8983 31.1536 29.8983H27.4651ZM22.964 30.733C22.964 28.3765 24.9792 26.4662 27.4651 26.4662H31.1536C33.6395 26.4662 35.6547 28.3765 35.6547 30.733V34.2296C35.6547 36.586 33.6395 38.4963 31.1536 38.4963H27.4651C24.9792 38.4963 22.964 36.586 22.964 34.2296V30.733Z" fill="#03FF3B"/>
</svg>
