<svg width="20" height="21" viewBox="0 0 20 21" fill="none" xmlns="http://www.w3.org/2000/svg">
<path d="M0.625 3.93748V9.77081C0.625 15.8229 4.0625 17.6458 8.75 20.125L9.60938 20.5625C9.76562 20.7083 9.84375 20.7083 10 20.7083C10.1562 20.7083 10.2344 20.7083 10.3906 20.6354L11.25 20.1979C15.9375 17.6458 19.375 15.8229 19.375 9.77081V3.93748C19.375 3.64581 19.1406 3.35415 18.8281 3.28123L10.2344 0.364563C10.0781 0.291646 9.84375 0.291646 9.6875 0.364563L1.09375 3.28123C0.859375 3.35415 0.625 3.64581 0.625 3.93748ZM5.3125 10.5C5.3125 9.55206 5.9375 8.74998 6.875 8.45831V6.85415C6.875 5.24998 8.28125 3.93748 10 3.93748C11.7188 3.93748 13.125 5.24998 13.125 6.85415V8.45831C14.0625 8.74998 14.6875 9.55206 14.6875 10.5V12.6875C14.6875 15.0937 12.5781 17.0625 10 17.0625C7.42188 17.0625 5.3125 15.0937 5.3125 12.6875V10.5Z" fill="#03FF3B"/>
</svg>
