<svg width="115" height="80" viewBox="0 0 115 80" fill="none" xmlns="http://www.w3.org/2000/svg">
<path d="M11.3367 3.84284C7.20005 3.84284 3.84608 7.19514 3.84608 11.3298V48.0713C3.84608 49.1325 2.9854 49.9927 1.9237 49.9927C0.862003 49.9927 0.00132555 49.1325 0.00132555 48.0713V11.3298C0.00132555 5.0728 5.07665 0 11.3367 0H68.0018C74.5601 0 79.8767 5.31397 79.8767 11.8691V39.6038H98.8155C99.8772 39.6038 100.738 40.464 100.738 41.5252C100.738 42.5864 99.8772 43.4466 98.8155 43.4466H76.032V11.8691C76.032 7.43631 72.4367 3.84284 68.0018 3.84284H11.3367Z" fill="#5E5E5E"/>
<path d="M35.6568 20.5022C36.7185 20.5022 37.5791 21.3625 37.5791 22.4236V41.5252C37.5791 42.5864 36.7185 43.4466 35.6568 43.4466C34.5951 43.4466 33.7344 42.5864 33.7344 41.5252V22.4236C33.7344 21.3625 34.5951 20.5022 35.6568 20.5022Z" fill="#5E5E5E"/>
<path d="M25.3515 20.5022C26.4132 20.5022 27.2739 21.3625 27.2739 22.4236V41.5252C27.2739 42.5864 26.4132 43.4466 25.3515 43.4466C24.2898 43.4466 23.4291 42.5864 23.4291 41.5252V22.4236C23.4291 21.3625 24.2898 20.5022 25.3515 20.5022Z" fill="#5E5E5E"/>
<path d="M45.2116 20.5022C46.2733 20.5022 47.134 21.3625 47.134 22.4236V41.5252C47.134 42.5864 46.2733 43.4466 45.2116 43.4466C44.1499 43.4466 43.2893 42.5864 43.2893 41.5252V22.4236C43.2893 21.3625 44.1499 20.5022 45.2116 20.5022Z" fill="#5E5E5E"/>
<path d="M54.7678 20.5022C55.8295 20.5022 56.6902 21.3625 56.6902 22.4236V41.5252C56.6902 42.5864 55.8295 43.4466 54.7678 43.4466C53.7061 43.4466 52.8455 42.5864 52.8455 41.5252V22.4236C52.8455 21.3625 53.7061 20.5022 54.7678 20.5022Z" fill="#5E5E5E"/>
<path d="M42.4209 67.0973C42.4209 66.0362 43.2816 65.1759 44.3433 65.1759H67.5682C68.6299 65.1759 69.4906 66.0362 69.4906 67.0973C69.4906 68.1585 68.6299 69.0188 67.5682 69.0188H44.3433C43.2816 69.0188 42.4209 68.1585 42.4209 67.0973Z" fill="#5E5E5E"/>
<path d="M1.92238 46.1499C2.98408 46.1499 3.84475 47.0101 3.84475 48.0713V65.1759H14.3688C15.4305 65.1759 16.2911 66.0362 16.2911 67.0973C16.2911 68.1585 15.4305 69.0188 14.3688 69.0188H0V48.0713C0 47.0101 0.860677 46.1499 1.92238 46.1499Z" fill="#5E5E5E"/>
<path d="M88.6323 17.8941C89.238 17.0226 90.4359 16.8068 91.3079 17.4122L106.694 28.0941C111.58 31.4875 114.495 37.0566 114.495 43.004V57.1483C114.495 61.3654 112.295 65.0652 108.989 67.1679C108.093 67.7377 106.905 67.4738 106.335 66.5786C105.765 65.6833 106.029 64.4957 106.925 63.926C109.168 62.4986 110.651 59.9968 110.651 57.1483V43.004C110.651 38.3162 108.353 33.9257 104.5 31.2501L89.1145 20.5683C88.2425 19.9629 88.0266 18.7657 88.6323 17.8941Z" fill="#5E5E5E"/>
<path d="M86.56 58.0349C81.5531 58.0349 77.4943 62.0917 77.4943 67.096C77.4943 72.1003 81.5531 76.1572 86.56 76.1572C91.5668 76.1572 95.6256 72.1003 95.6256 67.096C95.6256 62.0917 91.5668 58.0349 86.56 58.0349ZM73.6496 67.096C73.6496 59.9693 79.4297 54.192 86.56 54.192C93.6902 54.192 99.4704 59.9693 99.4704 67.096C99.4704 74.2227 93.6902 80 86.56 80C79.4297 80 73.6496 74.2227 73.6496 67.096Z" fill="#5E5E5E"/>
<path d="M25.3515 58.0349C20.3447 58.0349 16.2858 62.0917 16.2858 67.096C16.2858 72.1003 20.3447 76.1572 25.3515 76.1572C30.3583 76.1572 34.4172 72.1003 34.4172 67.096C34.4172 62.0917 30.3583 58.0349 25.3515 58.0349ZM12.4411 67.096C12.4411 59.9693 18.2213 54.192 25.3515 54.192C32.4817 54.192 38.2619 59.9693 38.2619 67.096C38.2619 74.2227 32.4817 80 25.3515 80C18.2213 80 12.4411 74.2227 12.4411 67.096Z" fill="#5E5E5E"/>
</svg>
